PathFileType	4	(X/Y/Z)	Kaydara	
DataRate	CameraRate	NumFrames	NumMarkers	Units	OrigDataRate	OrigDataStartFrame	OrigNumFrames	
120.00	120.00	4	72	mm	120.00	98	261	
Frame#	Time	Hips			RightUpLeg			RightLeg			RightFoot			RightFoot_End			LeftUpLeg			LeftLeg			LeftFoot			LeftFoot_End			Spine			Spine1			Spine2			Spine3			Neck			Head			Head_End			RightShoulder			RightArm			RightForeArm			RightHand			RightHandThumb1			RightHandThumb2			RightHandThumb3			RightHandThumb3_End			RightInHandIndex			RightHandIndex1			RightHandIndex2			RightHandIndex3			RightHandIndex3_End			RightInHandMiddle			RightHandMiddle1			RightHandMiddle2			RightHandMiddle3			RightHandMiddle3_End			RightInHandRing			RightHandRing1			RightHandRing2			RightHandRing3			RightHandRing3_End			RightInHandPinky			RightHandPinky1			RightHandPinky2			RightHandPinky3			RightHandPinky3_End			LeftShoulder			LeftArm			LeftForeArm			LeftHand			LeftHandThumb1			LeftHandThumb2			LeftHandThumb3			LeftHandThumb3_End			LeftInHandIndex			LeftHandIndex1			LeftHandIndex2			LeftHandIndex3			LeftHandIndex3_End			LeftInHandMiddle			LeftHandMiddle1			LeftHandMiddle2			LeftHandMiddle3			LeftHandMiddle3_End			LeftInHandRing			LeftHandRing1			LeftHandRing2			LeftHandRing3			LeftHandRing3_End			LeftInHandPinky			LeftHandPinky1			LeftHandPinky2			LeftHandPinky3			LeftHandPinky3_End			
		X1	Y1	Z1	X2	Y2	Z2	X3	Y3	Z3	X4	Y4	Z4	X5	Y5	Z5	X6	Y6	Z6	X7	Y7	Z7	X8	Y8	Z8	X9	Y9	Z9	X10	Y10	Z10	X11	Y11	Z11	X12	Y12	Z12	X13	Y13	Z13	X14	Y14	Z14	X15	Y15	Z15	X16	Y16	Z16	X17	Y17	Z17	X18	Y18	Z18	X19	Y19	Z19	X20	Y20	Z20	X21	Y21	Z21	X22	Y22	Z22	X23	Y23	Z23	X24	Y24	Z24	X25	Y25	Z25	X26	Y26	Z26	X27	Y27	Z27	X28	Y28	Z28	X29	Y29	Z29	X30	Y30	Z30	X31	Y31	Z31	X32	Y32	Z32	X33	Y33	Z33	X34	Y34	Z34	X35	Y35	Z35	X36	Y36	Z36	X37	Y37	Z37	X38	Y38	Z38	X39	Y39	Z39	X40	Y40	Z40	X41	Y41	Z41	X42	Y42	Z42	X43	Y43	Z43	X44	Y44	Z44	X45	Y45	Z45	X46	Y46	Z46	X47	Y47	Z47	X48	Y48	Z48	X49	Y49	Z49	X50	Y50	Z50	X51	Y51	Z51	X52	Y52	Z52	X53	Y53	Z53	X54	Y54	Z54	X55	Y55	Z55	X56	Y56	Z56	X57	Y57	Z57	X58	Y58	Z58	X59	Y59	Z59	X60	Y60	Z60	X61	Y61	Z61	X62	Y62	Z62	X63	Y63	Z63	X64	Y64	Z64	X65	Y65	Z65	X66	Y66	Z66	X67	Y67	Z67	X68	Y68	Z68	X69	Y69	Z69	X70	Y70	Z70	X71	Y71	Z71	X72	Y72	Z72	

98	0.808	6081.203	893.81699	129.612	6168.326939072165	907.275707907836	105.83833530781541	6063.509509884676	504.1021423718469	61.94462182695504	6034.378214473204	119.04950580076503	50.27247946635706	5927.026085021313	47.521164025925415	190.0262122043519	6005.738869951699	853.84899927851	167.01529454121953	5888.405024568846	468.06048330565744	280.5161735531354	5753.400531397098	91.52859916012216	477.7827900933674	5607.8634948586405	54.624436996176286	359.38831071054665	6024.63555025685	1014.7036763763178	78.59793734758036	5968.270074652997	1077.7818303356228	31.0106193030654	5905.963151602727	1137.7839275252697	-21.361199671168336	5842.2249299305395	1186.439543883057	-76.21985706525199	5771.88625965202	1239.305094379242	-131.34052903899715	5695.725863276941	1278.3079643783806	-170.78163623187552	5555.670091326395	1354.1832108462206	-177.6842198181853	5817.221028898018	1243.6222405068243	-120.80343469004976	5904.213139241411	1332.258700649668	-158.90992715129119	6084.019083244386	1181.4420636217374	-294.88638865949883	6327.310526495026	1176.6172706816894	-407.65756243199286	6348.804672242155	1211.2172408775991	-422.52585941065684	6362.134115819694	1222.9835541997045	-457.0045633216453	6372.579780078778	1226.6884258324437	-481.66265346796786	6382.282822149429	1225.9366314519905	-502.7726238472166	6356.593360417413	1199.6596511877806	-424.7035157082499	6398.524446239434	1212.3318592505998	-459.6791100552037	6418.904320049841	1213.8835137653475	-492.0642615763859	6422.5430205495195	1213.5328622500297	-513.3732162984669	6419.462778931572	1212.3554022140931	-531.8032847430139	6357.878906444135	1186.6633001205735	-425.6286309164414	6399.475086062806	1191.995731101642	-460.24087652707703	6421.73620391467	1191.9238752519152	-495.5981837074662	6426.13699337491	1190.6538406318887	-521.3156114905594	6422.771904488635	1188.9537327948426	-541.4857998972386	6357.82242820031	1177.2049669253622	-425.31920029729037	6395.359972266709	1173.9107752195835	-455.8637918921551	6414.719249829613	1172.0351913241527	-486.64666563237506	6418.940986783541	1169.847354326461	-511.4347471935313	6415.765963489825	1167.7925831744935	-530.391078693726	6355.71301661761	1165.5666294432424	-424.50469148971376	6389.208666476626	1155.5319077076076	-451.7925857350055	6404.478366374039	1151.2156139332103	-476.2555717990348	6407.445255131785	1148.2583789742712	-494.24574159602815	6404.567974016733	1145.6546724720656	-510.98596541501166	5773.5731918299725	1198.465368877099	-106.21555800029793	5708.201166586987	1086.2811341279871	-107.99903925574198	5957.155936970792	1096.1169819404695	-212.64981693823364	6199.125203319488	1147.1201417580496	-305.98667115781575	6218.933437383033	1186.4710719556333	-306.8678795599379	6246.381706383442	1205.9654747788093	-288.22347570061135	6267.426271688279	1215.3448777641697	-275.89383395618484	6286.6209236206905	1219.574082853869	-266.1749006123398	6227.939674406358	1176.2853360172512	-311.54706278094136	6277.956649636606	1199.891237261104	-312.71446458182623	6311.311661311873	1209.6566333730393	-301.49361442050383	6325.798555794612	1213.6576870969386	-287.2889514176576	6333.573605023087	1215.5730213022064	-270.65579935314236	6231.37794929587	1163.7332572200987	-312.71412685853284	6282.023181232169	1179.9702154005001	-314.4874723564118	6318.7097570543865	1188.8850937036152	-302.3784671890491	6336.326622461186	1192.876707264153	-285.3059125778433	6344.901480884768	1194.5662497051553	-267.1377472224097	6232.56804500456	1154.3077347172837	-313.63556275290404	6279.098532092271	1160.8086535084622	-316.3953832496651	6311.29048089241	1166.773219321837	-305.97509629328675	6328.3979320264925	1169.6645221130561	-289.57838696941695	6336.5147516342495	1170.7987049550777	-272.529435021858	6232.196744287009	1142.4066349168813	-313.6656881621303	6274.786666731082	1141.1905777904108	-316.64105593907993	6300.698258230766	1143.1210353081485	-308.4929057098075	6313.24106834875	1143.8533836377494	-296.62790377007445	6320.468409593181	1144.0658433387464	-281.5798761950838
99	0.817	6081.203	893.81699	129.612	6168.426707345013	907.2915727591405	106.18702022299485	6063.690528978222	504.10916169257536	62.295850534953146	6034.287672108577	119.0322785456155	50.68421553295891	5926.955954625163	47.50501141394576	190.4368869510958	6005.596974716245	853.8355187380802	166.70453178945195	5888.223170585012	468.07200805065713	280.2459328106185	5752.9328317398895	91.91416345664723	478.0856292298285	5607.748086153131	54.82638257274419	359.30455184262513	6024.783064642878	1014.6922061406833	78.4105507479864	5968.548476293783	1077.7947745874492	30.70846814277158	5906.382265678127	1137.8330037370984	-21.779038995742624	5842.785507639633	1186.5435909535213	-76.73838220271554	5772.583371026162	1239.4618393701026	-131.96792421730072	5696.447651747215	1278.4814176977093	-171.4483302851291	5556.392657276764	1354.3350291422046	-178.58543226209838	5817.890988118804	1243.81341427569	-121.23632028344389	5905.056086247114	1332.5962127074931	-158.61868952018168	6086.467049049246	1182.8739660158162	-294.343318601425	6330.32478916798	1180.8597661371305	-407.3003111404602	6351.6485267848475	1215.8740516491414	-421.83911474986996	6365.030679498549	1228.0774404166918	-456.2362941558266	6375.548410280011	1232.0912969010105	-480.8804570091266	6385.3417801044325	1231.601029508092	-502.0154707992491	6359.53504971274	1204.3778747722686	-424.1240829663501	6401.543916897929	1217.7643735632807	-458.98855831032	6422.048882500539	1219.7762951187153	-491.38211549366355	6425.769465345505	1219.632409147563	-512.7170755358261	6422.759772113493	1218.572542914321	-531.1826848909923	6360.917433967967	1191.3674385879924	-425.17367619196654	6402.641838771681	1197.3889589582222	-459.74484537774924	6425.052070492581	1197.8151246872028	-495.1282168783536	6429.5577010559455	1196.7925189916675	-520.8851251789222	6426.272747505845	1195.2200950593715	-541.0981425112958	6360.926913028453	1181.8814725833845	-424.95441228592335	6398.6352416606005	1179.1824527761619	-455.53867020815795	6418.137183272855	1177.7355396045418	-486.3615987732902	6422.466790124644	1175.7834959083436	-511.1969692489818	6419.37030919355	1173.8474190595439	-530.1979338363391	6358.895000995479	1170.1862918199065	-424.25187022423984	6392.593506424485	1160.6644774731221	-451.64308201356954	6407.996512131934	1156.6804126426782	-476.165021493518	6411.051304403221	1153.8898285393575	-494.2026865995915	6408.248906818828	1151.3881937941514	-510.98993097062714	5774.2128636343405	1198.555447758677	-106.96833146029671	5708.698474623345	1086.4524832206891	-109.34667168010552	5958.145031665161	1097.076813113283	-213.27169250835973	6200.5204855015645	1150.050065036033	-305.54446405686434	6220.151045585503	1189.6381836636936	-306.04401300644577	6247.421828113019	1209.245771341098	-287.1260495047779	6268.36973456929	1218.7137620841495	-274.6340259304621	6287.5068550233955	1223.0251732271477	-264.8037821028962	6229.243976238152	1179.5297702081828	-310.7810475025541	6279.194066658064	1203.5635370365078	-311.5923378340575	6312.468282447322	1213.5168979010043	-300.16614927505947	6326.869388565088	1217.5333907033491	-285.8618674743034	6334.549446370894	1219.3930939267939	-269.16517498069715	6232.75623124653	1166.9841420418745	-312.0390211678278	6283.376251243783	1183.6419478421628	-313.51418709332705	6319.984598592884	1192.76125918052	-301.1943203776379	6337.502731349581	1196.7711758512191	-284.0079155703495	6345.975969579115	1198.399690542242	-265.77330556751656	6234.000811260391	1157.5535222302908	-313.0334538073997	6280.557493817677	1164.4308770394307	-315.58848075016607	6312.69144758944	1170.572261569522	-304.99837481905513	6329.709074318149	1173.4804933526486	-288.4992661130316	6337.732909518248	1174.5569508033616	-271.39135501345	6233.690222121222	1145.6241962305403	-313.1605366022642	6276.343291048609	1144.7403814929135	-316.0066596059667	6302.224220858127	1146.808646719866	-307.74521290372434	6314.709145210515	1147.5515138401001	-295.81649551263024	6321.858510171395	1147.7117851779126	-280.72255592165624
100	0.825	6081.203	893.81699	129.612	6168.5349268055925	907.3028491545729	106.52227991424854	6063.871398309726	504.116771937882	62.60529316775647	6034.20686853491	119.00524025476173	51.05479456340275	5926.884859247784	47.48318762310602	190.8050500046836	6005.446761879977	853.826826945796	166.40737346081073	5888.052364856584	468.0861395461323	280.00043166910456	5752.507781112493	92.27815214412945	478.3840385288377	5607.669633647375	54.99838893917975	359.2275579200151	6024.93058972972	1014.6812423146417	78.22376241993098	5968.827053800668	1077.807341012174	30.40572718986052	5906.801399490922	1137.8801671701367	-22.198873949525193	5843.345255748953	1186.642687927107	-77.2605182986582	5773.27957962788	1239.6113079117629	-132.60098734283926	5697.172932056201	1278.649788240738	-172.12699399128797	5557.1243013548565	1354.4910369198801	-179.50531928062324	5818.564931337422	1243.9918658018134	-121.68571599905778	5905.913978711547	1332.8892523037714	-158.3999291581149	6088.820987227579	1184.157638947029	-293.86821150299005	6333.19714858423	1184.7927736497566	-407.0226834868129	6354.344700341362	1220.1919049392097	-421.25449336717065	6367.762960501437	1232.8057137016199	-455.5717652478968	6378.3407540227345	1237.1110054846288	-480.20028741554523	6388.214066148194	1236.868501633717	-501.35648715345025	6362.327787343316	1208.7576065611388	-423.6401910480664	6404.398362418217	1222.8198331152705	-458.40070643913094	6425.012719886308	1225.2676585910501	-490.79946836622696	6428.804554073144	1225.3189159163462	-512.1557095737803	6425.856022857801	1224.369401015045	-530.6511053979515	6363.806151557504	1195.7373010468991	-424.8059012951908	6405.642641024568	1202.4125772648565	-459.3384566439925	6428.184788121408	1203.3108639972193	-494.74326296984526	6432.782401842141	1202.5219938715568	-520.533406816857	6429.567297668285	1201.069488940735	-540.7826915036953	6363.881431480401	1186.2276385933626	-424.67078032258655	6401.746060033754	1184.095465288141	-455.2918754277272	6421.375632199485	1183.055403339212	-486.14965733739064	6425.800683484359	1181.326345862113	-511.0256735340235	6422.773062639503	1179.5018524939949	-530.0648081419974	6361.926991224953	1174.4814747028051	-424.0725353235339	6395.815178061819	1165.4501003905561	-451.5599650605636	6411.339446747029	1161.7820946985662	-476.1348849579931	6414.473077135155	1159.1494499475023	-494.21432527846184	6411.736984897053	1156.7439505250989	-511.04236167961534	5774.8462728722825	1198.6448245027382	-107.7142733986279	5709.179964486802	1086.621156772128	-110.62590415722552	5959.095446431829	1097.9253645545748	-213.8848465645322	6201.86558038766	1152.7358099673959	-305.1666889816513	6221.322726811948	1192.5403420865669	-305.31113580464637	6248.428301190024	1212.2528792428102	-286.1408607463492	6269.287438682752	1221.8040598040036	-273.4992391041004	6288.373039871518	1226.1934654141696	-263.5666196453931	6230.499391950344	1182.507009770861	-310.1015469542054	6280.3863863699935	1206.9414043315724	-310.58168020992025	6313.587685340014	1217.0720221587521	-298.96588291576444	6327.911023321825	1221.1036627495334	-284.5705670880448	6335.504833803043	1222.9117877713988	-267.81663414612535	6234.083947275238	1169.9700893184724	-311.4440077395218	6284.681540726041	1187.0233942683983	-312.64186041084287	6321.220029840033	1196.3358507805056	-300.12736592099236	6338.648996950318	1200.3639093989616	-282.8370216396433	6347.0301295772615	1201.9359233265316	-264.54264326060934	6235.381671336977	1160.5365749438533	-312.50627126774606	6281.965716009436	1167.7693062048008	-314.870745338588	6314.0487341106755	1174.0781170489208	-304.1239858940579	6330.985639150752	1177.0033593144533	-287.53151494523223	6338.925376626263	1178.0264601695214	-270.3706744440945	6235.13058670961	1148.5830356444126	-312.72356826417234	6277.846938650697	1148.0143209418582	-315.44938711131346	6303.70248652196	1150.2136613114185	-307.0835890929634	6316.135984172837	1150.9674880893745	-295.096975337554	6323.215141126545	1151.079660627278	-279.9620204430134
101	0.833	6081.203	893.81699	129.612	6168.652360957633	907.3100129562166	106.84365214082399	6064.051587775013	504.12551742338627	62.87346867194337	6034.136121237572	118.96845426227591	51.386437574916975	5926.812624775464	47.456232941100396	191.13312101043374	6005.287546179893	853.8224315453987	166.12420139605402	5887.8920113232525	468.1025861779408	279.7808526450213	5752.125046353578	92.62004874458235	478.67984868811	5607.627136683005	55.14141913228531	359.15930742712067	6025.07775193404	1014.6708471228029	78.03805092927828	5969.105147957947	1077.8195239841602	30.103078891702843	5907.219609122232	1137.925317416673	-22.619854589971716	5843.90299711685	1186.7366206229815	-77.78535180670148	5773.973459956647	1239.7531647790374	-133.23869682816684	5697.899995452855	1278.8124531862984	-172.81636827018986	5557.863208812067	1354.6504862199097	-180.44200384993755	5819.241781590901	1244.1577061944085	-122.15090066271193	5906.786843460082	1333.139994430192	-158.25445039301255	6091.079615853269	1185.2922886383692	-293.46637275047993	6335.929905796311	1188.411734323426	-406.8335836749253	6356.896648968907	1224.1661377338794	-420.78156529344585	6370.334807408772	1237.1635589615357	-455.02163077075085	6380.960830314896	1241.7425671488652	-479.63355512512805	6390.9037533184965	1241.7338679570184	-500.80771489832046	6364.974828679436	1212.7939268279217	-423.26144535891666	6407.091845063071	1227.4926170744911	-457.92636727348616	6427.800123216725	1230.3516010538028	-490.3281349196353	6431.652558525012	1230.5863057947104	-511.7015500163065	6428.755678161336	1229.7399494598762	-530.2214844123656	6366.547990743817	1199.7678246652042	-424.5348807385231	6408.481036301418	1207.0607619169775	-459.03244576974083	6431.138104127262	1208.4048354388556	-494.455142900598	6435.814797914097	1207.8359107874087	-520.2730178259067	6432.659109931572	1206.4956104982389	-540.5525607296851	6366.688668571506	1190.2383172841655	-424.47782488945097	6404.695455223069	1188.6439044270687	-455.1339174829116	6424.437754349177	1187.9884806159564	-486.0222875830381	6428.945755686559	1186.4695006654347	-510.9330153889278	6425.977162201114	1184.7495235470753	-530.004373917099	6364.811342239156	1178.4469657637464	-423.97612098883445	6398.876157140794	1169.8828209156507	-451.5535191190947	6414.509673949577	1166.514368345731	-476.17617665360024	6417.712990005419	1164.0308671483024	-494.2921798391736	6415.034470484764	1161.715599371804	-511.15523225199354	5775.471803420642	1198.7327812292026	-108.4521558621719	5709.6428908822445	1086.7844030875426	-111.83513340945429	5960.005667171706	1098.6611946323912	-214.49204880339508	6203.162314064294	1155.1746294023085	-304.8607835245899	6222.451386651948	1195.1748180913855	-304.6771034588851	6249.405030710197	1214.9839757691161	-285.2757428583878	6270.183917409519	1224.6128283179019	-272.49731404760286	6289.224477343577	1229.0758700496237	-262.4712790164674	6231.708686814581	1185.2141231842718	-309.51659649446594	6281.537542518544	1210.0214570414369	-309.69126066766546	6314.67459774785	1220.318352599292	-297.90176991559895	6328.928635494833	1224.3647835912932	-283.4238666315362	6336.4452822813555	1226.1253977286979	-266.6187077737256	6235.363636747431	1172.6880363841453	-310.93714217493186	6285.942606552801	1190.1109815795392	-311.8792744834102	6322.420440471436	1199.6049834169157	-299.1865884219912	6339.77033290397	1203.6509354992015	-281.80204859817866	6348.069238186472	1205.1709878724087	-263.4542657555629	6236.712975163424	1163.253748161519	-312.0620699080101	6283.326295994154	1170.8202650889762	-314.2508927364714	6315.366127688418	1177.2868225900377	-303.36082037511517	6332.231900061029	1180.229064462866	-286.68386274918015	6340.096759381351	1181.2031851532217	-269.4758285720887	6236.519935921686	1151.2799338650223	-312.36278741879346	6279.300237844371	1151.0086405414397	-314.9778300977445	6305.136176606087	1153.3320718796097	-306.5167612224521	6317.52503261119	1154.0972213676291	-294.47794994772124	6324.542028187244	1154.1653854243543	-279.3066146290587
